<svg width="150" height="150" viewBox="0 0 150 150" fill="none" xmlns="http://www.w3.org/2000/svg">
<path fill-rule="evenodd" clip-rule="evenodd" d="M24.7532 132H125.247C126.767 132 128 130.781 128 129.277V74.1386L126.623 21.7229C116.874 24.3525 109.139 28.5782 102.138 32.4029C87.906 40.1779 76.7081 46.2953 57.7922 33.9759C29.5714 15.5964 22 27.1687 22 27.1687V129.277C22 130.781 23.2327 132 24.7532 132Z" fill="#CCEF7C"/>
<path d="M57.7922 27.1687C29.5714 8.78916 22 27.1687 22 27.1687C22 27.1687 29.5714 15.5964 57.7922 33.9759C76.7081 46.2953 87.906 40.1779 102.138 32.4029C109.139 28.5782 116.874 24.3525 126.623 21.7229C94.5 21.7229 86.013 45.5482 57.7922 27.1687Z" fill="#333333"/>
<path d="M22.5 129.277V27.333C22.554 27.2645 22.6351 27.1672 22.7458 27.0487C22.986 26.7917 23.3653 26.4354 23.9088 26.0586C24.9932 25.307 26.7427 24.4655 29.3679 24.177C34.6256 23.5992 43.4558 25.2356 57.5194 34.3949C67.0543 40.6048 74.7024 42.2014 81.7901 41.2201C88.8239 40.2462 95.2501 36.7355 102.327 32.8692L102.378 32.8416C109.233 29.0968 116.743 24.9957 126.14 22.3739L127.5 74.1453V129.277C127.5 130.5 126.496 131.5 125.247 131.5H24.7532C23.5036 131.5 22.5 130.5 22.5 129.277ZM24.1486 24.7316C25.2663 23.3794 26.9943 21.8023 29.5084 20.7367C34.7163 18.5294 43.4838 18.4466 57.5194 27.5877C64.6265 32.2164 70.5298 34.2125 75.9021 34.5705C81.2719 34.9284 86.0606 33.6459 90.9214 31.8057C92.8628 31.0707 94.8157 30.2478 96.8246 29.4013C104.06 26.3523 112.023 22.9969 122.8 22.3385C114.694 24.9735 108.006 28.6272 101.913 31.956L101.898 31.9641C94.7633 35.8619 88.4884 39.2831 81.653 40.2295C74.8548 41.1708 67.446 39.6665 58.0651 33.5569C43.9079 24.3367 34.842 22.5694 29.2587 23.183C27.0192 23.429 25.3498 24.0575 24.1486 24.7316Z" stroke="black"/>
<path d="M45 5V61C45 62.1046 45.8954 63 47 63H52.8355C53.8876 63 54.7598 62.1849 54.8309 61.1352L58.0515 13.619C58.1195 12.6153 58.9225 11.8183 59.9267 11.7579L90.1498 9.93781C91.2485 9.87165 92.1942 10.7057 92.2658 11.8041L95.4804 61.1301C95.549 62.1819 96.4221 63 97.4762 63H104C105.105 63 106 62.1046 106 61V5C106 3.89543 105.105 3 104 3H47C45.8954 3 45 3.89543 45 5Z" fill="#CCEF7C" stroke="black" stroke-opacity="0.2"/>
<path d="M73.7 120.876L72.296 119.868L73.7 118.86L72.296 117.78L73.7 116.7L72.8 115.368L73.7 114L72.8 113.208L73.7 112.416L72.476 111.336L73.7 110.256L72.944 108.888L73.7 107.52L72.8 106.512L73.7 105.504L72.44 104.46L73.7 103.38L72.944 102.228L73.7 101.076L72.764 99.996L73.7 98.916L74.636 98.016L75.824 98.52L76.976 97.368L78.128 98.52L79.136 97.8L80.144 98.52L81.152 97.728L82.16 98.52L82.952 97.188L83.744 98.52L85.184 97.476L86.624 98.52L87.632 97.224L88.64 98.52L89.504 97.332L90.368 98.52L91.664 98.196L92.348 99.348L93.68 100.068L92.348 100.788L93.32 102.228L92.348 103.668L92.24 104.676L91.232 104.496L89.864 105.072L88.532 104.496L87.596 105.216L86.66 104.496L85.292 105.468L83.924 104.496L83.168 105.396L82.376 104.496V105.828L81.08 106.044L81.872 107.34L81.08 108.6L82.376 107.736L83.672 108.6L85.076 107.7L86.516 108.6L87.812 107.736L89.072 108.6L90.512 108.132L91.628 109.14L92.528 109.86L91.628 110.58L92.6 111.696L91.628 112.848L91.7 114.036L90.656 114.54L89.36 115.512L88.1 114.54L86.588 115.872L85.076 114.54L84.068 115.836L83.096 114.54L82.196 115.548L81.08 114.828L82.376 116.34L81.08 117.852L82.16 119.148L81.08 120.444L81.404 121.704L80.252 122.28L79.244 123.504L78.236 122.28L77.336 123.576L76.4 122.28L75.176 123.036L73.7 120.876ZM77.912 99.276L77.66 99.024L77.336 99.096L77.408 99.42L77.696 99.6L77.912 99.276ZM81.188 99.636L80.864 99.096L80.288 99.42L80.396 99.96L80.972 100.356L81.188 99.636ZM86.912 99.456L86.48 99.672L86.552 100.14L87.02 100.284L87.236 99.852L86.912 99.456ZM76.184 99.816L75.284 100.824L75.212 102.192L76.76 102.264L77.336 100.824L76.184 99.816ZM84.68 101.364L83.492 100.284L81.98 101.4L82.916 102.876L84.536 102.912L84.68 101.364ZM90.296 103.128L89.648 102.912L89.396 103.56L89.828 104.136L90.476 103.776L90.296 103.128ZM78.596 104.208L77.444 104.388L76.832 105.216L77.66 106.152L78.416 105.324L78.596 104.208ZM76.544 107.232L75.86 106.296L74.96 107.016L75.068 108.096L76.22 108.276L76.544 107.232ZM90.62 109.716L90.332 109.932L90.368 110.292L90.692 110.184L90.8 110.004L90.62 109.716ZM84.86 110.076L82.988 110.04L82.484 112.2L84.536 113.172L86.228 111.624L84.86 110.076ZM77.876 111.768L76.436 113.064L76.148 114.864L77.984 114.792L79.352 113.496L77.876 111.768ZM81.44 113.1L81.116 112.704L80.468 112.74L80.684 113.352L81.188 113.64L81.44 113.1ZM77.012 118.176L76.112 117.672L75.068 117.6L75.464 118.608L76.256 119.04L77.012 118.176ZM79.352 118.32L77.876 119.436L77.948 121.02L79.604 121.452L80.18 119.976L79.352 118.32ZM105.901 122.424L104.857 123.108L104.173 122.1L102.517 122.568L101.581 121.128L99.8534 120.876L99.2054 119.292L97.5494 118.392L97.8734 116.556L98.4854 115.44L99.7094 115.62L100.573 114.648L101.437 115.62L102.877 114.792L104.281 115.62L105.289 115.044L105.829 116.088L107.485 115.8L108.637 117.06L109.753 115.944L111.085 116.772L111.193 115.656L112.273 115.764L111.193 115.044L111.085 113.748L110.149 114.036L109.537 113.316L108.061 113.856L106.801 112.884L105.721 113.568L104.929 112.524L103.273 112.74L102.049 111.516L100.717 111.732L100.393 110.4L99.1334 109.968L99.0614 108.672L97.5854 107.448L98.4134 105.72L97.2974 104.46L98.7734 103.56L97.9814 102.408L99.3854 102.264L99.2774 100.752L100.789 100.608L100.573 99.06L101.977 99.78L102.589 98.34L104.101 98.844L105.325 97.584L106.945 98.232L107.665 96.972L108.529 98.16L109.933 97.152L111.121 98.376L112.381 97.224L112.957 98.808L114.721 98.628L115.765 100.032L117.601 99.924L117.889 101.76L119.113 101.904L118.789 103.092L120.085 103.596L119.257 104.748L118.681 106.008L117.781 104.964L116.845 105.828L115.909 104.964L114.757 105.72L113.605 104.964L112.093 105.18L110.797 104.388L109.681 104.712L108.961 103.74L108.025 105.18L106.369 104.748L107.341 105.612L107.269 106.944L108.277 106.332L108.673 107.376L110.041 106.692L111.157 107.772L112.129 107.232L112.849 108.024L113.785 107.556L114.433 108.384L115.657 108.276L116.593 109.14H118.357L118.897 110.796L120.085 111.336L119.869 112.596L120.877 113.856L120.157 115.296L120.517 116.916L119.329 118.068L119.581 119.328L118.285 119.436L118.465 120.876L117.061 120.48L116.557 121.632L115.297 121.452L114.577 122.532L113.389 122.1L112.309 123.216L110.941 122.532L110.005 123.972L105.901 122.424ZM107.017 100.32L106.621 100.032L106.081 100.176L106.261 100.752L106.909 100.968L107.017 100.32ZM104.245 100.104L103.777 100.032L103.525 100.32L103.705 100.716L104.173 100.644L104.245 100.104ZM101.977 101.544L101.257 100.932L100.645 101.328L100.717 101.94L101.365 102.228L101.977 101.544ZM110.401 101.364L109.033 101.328V102.624L109.969 103.416L110.797 102.48L110.401 101.364ZM101.617 105.612L100.861 106.008L100.465 107.016L101.689 107.412L102.301 106.368L101.617 105.612ZM101.797 108.24L101.149 108.276L100.753 108.924L101.401 109.248L102.085 108.924L101.797 108.24ZM104.101 108.744L103.705 108.96L103.849 109.428L104.317 109.392L104.461 108.996L104.101 108.744ZM107.413 110.04L107.089 109.968L106.765 110.292L107.161 110.58L107.665 110.472L107.413 110.04ZM111.049 110.364L110.545 110.328L110.401 110.76L110.725 111.084L111.193 110.868L111.049 110.364ZM114.001 112.956L113.497 112.164L112.597 112.74L112.705 113.856L113.785 113.748L114.001 112.956ZM119.329 112.632L117.817 112.488L116.305 113.316L117.529 114.792L119.005 114.216L119.329 112.632ZM98.9534 116.7L98.5214 116.376L98.2334 116.7L98.2694 117.06L98.7374 117.204L98.9534 116.7ZM115.045 118.14L114.037 116.664L112.813 117.672L112.381 119.22L114.109 119.472L115.045 118.14ZM100.969 117.276L100.285 117.708L100.321 118.284L100.861 118.5L101.149 118.032L100.969 117.276ZM103.741 117.456H103.201L102.985 118.104L103.633 118.32L104.209 117.924L103.741 117.456ZM108.277 118.932L107.629 119.292L107.701 120.192L108.817 120.336L109.033 119.292L108.277 118.932ZM110.113 121.632L109.789 121.524L109.573 121.632L109.681 121.848L109.933 121.92L110.113 121.632Z" fill="#9B69B3"/>
</svg>
